<svg width="769" height="338" viewBox="0 0 769 338" fill="none" xmlns="http://www.w3.org/2000/svg">
<path d="M0 43.8961C0 19.653 20.4531 0 45.6832 0H479.673C504.903 0 525.356 19.653 525.356 43.8961V294.104C525.356 318.347 504.903 338 479.673 338H45.6832C20.453 338 0 318.347 0 294.104V43.8961Z" fill="#F94144"/>
<path d="M60.9109 43.8961C60.9109 19.653 81.3639 0 106.594 0H540.584C565.814 0 586.267 19.653 586.267 43.8961V294.104C586.267 318.347 565.814 338 540.584 338H106.594C81.3639 338 60.9109 318.347 60.9109 294.104V43.8961Z" fill="#F9844A"/>
<path d="M121.822 43.8961C121.822 19.653 142.275 0 167.505 0H601.495C626.725 0 647.178 19.653 647.178 43.8961V294.104C647.178 318.347 626.725 338 601.495 338H167.505C142.275 338 121.822 318.347 121.822 294.104V43.8961Z" fill="#F9C74F"/>
<path d="M182.733 43.8961C182.733 19.653 203.186 0 228.416 0H662.406C687.636 0 708.089 19.653 708.089 43.8961V294.104C708.089 318.347 687.636 338 662.406 338H228.416C203.186 338 182.733 318.347 182.733 294.104V43.8961Z" fill="#90BE6D"/>
<path d="M243.644 43.8961C243.644 19.653 264.097 0 289.327 0H723.317C748.547 0 769 19.653 769 43.8961V294.104C769 318.347 748.547 338 723.317 338H289.327C264.097 338 243.644 318.347 243.644 294.104V43.8961Z" fill="#43AA8B"/>
<path d="M0 108.277H536.016V237.039H0V108.277Z" fill="#343A40"/>
<path d="M83.5819 222.348C75.7853 222.348 68.5248 221.178 61.8002 218.837C55.0756 216.402 49.1795 212.937 44.1117 208.442C39.1413 203.947 35.243 198.609 32.4168 192.429C29.5905 186.155 28.1774 179.272 28.1774 171.78C28.1774 164.663 29.6392 158.061 32.563 151.974C35.5841 145.887 39.6286 140.596 44.6964 136.101C49.8617 131.513 55.8066 128.001 62.5311 125.566C69.2557 123.038 76.4188 121.774 84.0205 121.774C90.0629 121.774 95.8616 122.57 101.417 124.162C106.972 125.754 111.991 127.814 116.474 130.342C121.054 132.777 124.758 135.446 127.584 138.349L117.789 150.429C114.476 147.62 111.016 145.232 107.41 143.265C103.902 141.205 100.101 139.613 96.0078 138.489C92.012 137.366 87.7239 136.804 83.1434 136.804C78.0756 136.804 73.2027 137.646 68.5248 139.332C63.9443 140.924 59.8023 143.265 56.0989 146.355C52.493 149.446 49.618 153.145 47.4739 157.452C45.3299 161.76 44.2579 166.536 44.2579 171.78C44.2579 177.492 45.3299 182.549 47.4739 186.951C49.7155 191.352 52.7367 195.098 56.5375 198.188C60.3383 201.185 64.6752 203.479 69.5481 205.071C74.5184 206.663 79.7811 207.459 85.3362 207.459C90.209 207.459 94.6433 206.85 98.6391 205.633C102.732 204.322 106.436 202.73 109.749 200.857C113.063 198.89 116.035 196.83 118.667 194.676L126.414 207.178C123.881 209.519 120.372 211.86 115.889 214.201C111.503 216.542 106.533 218.509 100.978 220.101C95.423 221.599 89.6243 222.348 83.5819 222.348Z" fill="#EDF6F9"/>
<path d="M151.13 220.944L197.325 122.616H215.014L260.916 220.944H243.666L213.259 156.329C212.675 154.924 211.944 153.238 211.067 151.272C210.189 149.212 209.264 147.105 208.289 144.951C207.412 142.797 206.535 140.643 205.658 138.489C204.878 136.335 204.196 134.416 203.611 132.73L207.85 132.59C207.071 134.556 206.242 136.616 205.365 138.77C204.586 140.924 203.757 143.078 202.88 145.232C202.003 147.292 201.126 149.305 200.249 151.272C199.372 153.238 198.543 155.111 197.764 156.891L167.503 220.944H151.13ZM171.304 197.345L177.444 182.737H232.994L237.088 197.345H171.304Z" fill="#EDF6F9"/>
<path d="M332.068 222.348C325.343 222.348 319.154 221.646 313.502 220.241C307.849 218.837 302.684 216.73 298.006 213.92C293.426 211.111 289.235 207.552 285.434 203.245L295.667 190.884C301.417 197.252 307.167 201.84 312.917 204.649C318.765 207.365 325.392 208.723 332.798 208.723C337.379 208.723 341.667 208.161 345.663 207.037C349.756 205.82 353.07 204.134 355.604 201.981C358.235 199.733 359.551 196.971 359.551 193.693C359.551 191.539 358.917 189.713 357.65 188.215C356.383 186.716 354.678 185.452 352.534 184.422C350.39 183.392 347.953 182.549 345.224 181.894C342.593 181.145 339.864 180.536 337.038 180.068C334.309 179.599 331.726 179.178 329.29 178.803C323.248 177.961 317.79 176.79 312.917 175.292C308.142 173.7 304.097 171.733 300.784 169.392C297.47 167.051 294.936 164.242 293.182 160.964C291.428 157.687 290.551 153.941 290.551 149.727C290.551 145.419 291.574 141.486 293.621 137.927C295.765 134.369 298.737 131.372 302.538 128.937C306.339 126.409 310.773 124.489 315.841 123.178C320.909 121.867 326.415 121.212 332.36 121.212C338.597 121.212 344.298 121.867 349.464 123.178C354.726 124.489 359.356 126.456 363.351 129.078C367.445 131.606 370.856 134.743 373.584 138.489L362.767 149.446C360.33 146.262 357.504 143.593 354.288 141.439C351.169 139.285 347.709 137.646 343.909 136.523C340.108 135.399 336.112 134.837 331.921 134.837C327.146 134.837 322.907 135.399 319.203 136.523C315.5 137.646 312.576 139.238 310.432 141.299C308.288 143.265 307.216 145.653 307.216 148.462C307.216 150.804 307.849 152.864 309.116 154.643C310.383 156.329 312.186 157.78 314.525 158.998C316.864 160.215 319.739 161.245 323.15 162.088C326.561 162.931 330.459 163.633 334.845 164.195C340.498 165.038 345.809 166.115 350.779 167.426C355.847 168.643 360.281 170.282 364.082 172.342C367.883 174.308 370.856 176.837 373 179.927C375.144 182.924 376.216 186.623 376.216 191.024C376.216 197.392 374.413 202.917 370.807 207.599C367.201 212.282 362.084 215.934 355.457 218.556C348.83 221.084 341.034 222.348 332.068 222.348Z" fill="#EDF6F9"/>
<path d="M493.2 220.944V122.616H508.988V220.944H493.2ZM413.382 220.944V122.616H429.171V220.944H413.382ZM420.253 179.646V165.038H500.217V179.646H420.253Z" fill="#EDF6F9"/>
<path d="M553.43 220.944V122.616H569.218V206.335H630.178V220.944H553.43Z" fill="#EDF6F9"/>
<path d="M684.986 220.944V175.151L687.179 184.563L637.183 122.616H658.088L694.927 170.094L691.418 169.814L726.649 122.616H745.653L699.458 182.737L700.774 174.028V220.944H684.986Z" fill="#EDF6F9"/>
<path d="M83.5819 222.348C75.7853 222.348 68.5248 221.178 61.8002 218.837C55.0756 216.402 49.1795 212.937 44.1117 208.442C39.1413 203.947 35.243 198.609 32.4168 192.429C29.5905 186.155 28.1774 179.272 28.1774 171.78C28.1774 164.663 29.6392 158.061 32.563 151.974C35.5841 145.887 39.6286 140.596 44.6964 136.101C49.8617 131.513 55.8066 128.001 62.5311 125.566C69.2557 123.038 76.4188 121.774 84.0205 121.774C90.0629 121.774 95.8616 122.57 101.417 124.162C106.972 125.754 111.991 127.814 116.474 130.342C121.054 132.777 124.758 135.446 127.584 138.349L117.789 150.429C114.476 147.62 111.016 145.232 107.41 143.265C103.902 141.205 100.101 139.613 96.0078 138.489C92.012 137.366 87.7239 136.804 83.1434 136.804C78.0756 136.804 73.2027 137.646 68.5248 139.332C63.9443 140.924 59.8023 143.265 56.0989 146.355C52.493 149.446 49.618 153.145 47.4739 157.452C45.3299 161.76 44.2579 166.536 44.2579 171.78C44.2579 177.492 45.3299 182.549 47.4739 186.951C49.7155 191.352 52.7367 195.098 56.5375 198.188C60.3383 201.185 64.6752 203.479 69.5481 205.071C74.5184 206.663 79.7811 207.459 85.3362 207.459C90.209 207.459 94.6433 206.85 98.6391 205.633C102.732 204.322 106.436 202.73 109.749 200.857C113.063 198.89 116.035 196.83 118.667 194.676L126.414 207.178C123.881 209.519 120.372 211.86 115.889 214.201C111.503 216.542 106.533 218.509 100.978 220.101C95.423 221.599 89.6243 222.348 83.5819 222.348Z" fill="#EDF6F9"/>
<path d="M151.13 220.944L197.325 122.616H215.014L260.916 220.944H243.666L213.259 156.329C212.675 154.924 211.944 153.238 211.067 151.272C210.189 149.212 209.264 147.105 208.289 144.951C207.412 142.797 206.535 140.643 205.658 138.489C204.878 136.335 204.196 134.416 203.611 132.73L207.85 132.59C207.071 134.556 206.242 136.616 205.365 138.77C204.586 140.924 203.757 143.078 202.88 145.232C202.003 147.292 201.126 149.305 200.249 151.272C199.372 153.238 198.543 155.111 197.764 156.891L167.503 220.944H151.13ZM171.304 197.345L177.444 182.737H232.994L237.088 197.345H171.304Z" fill="#EDF6F9"/>
<path d="M332.068 222.348C325.343 222.348 319.154 221.646 313.502 220.241C307.849 218.837 302.684 216.73 298.006 213.92C293.426 211.111 289.235 207.552 285.434 203.245L295.667 190.884C301.417 197.252 307.167 201.84 312.917 204.649C318.765 207.365 325.392 208.723 332.798 208.723C337.379 208.723 341.667 208.161 345.663 207.037C349.756 205.82 353.07 204.134 355.604 201.981C358.235 199.733 359.551 196.971 359.551 193.693C359.551 191.539 358.917 189.713 357.65 188.215C356.383 186.716 354.678 185.452 352.534 184.422C350.39 183.392 347.953 182.549 345.224 181.894C342.593 181.145 339.864 180.536 337.038 180.068C334.309 179.599 331.726 179.178 329.29 178.803C323.248 177.961 317.79 176.79 312.917 175.292C308.142 173.7 304.097 171.733 300.784 169.392C297.47 167.051 294.936 164.242 293.182 160.964C291.428 157.687 290.551 153.941 290.551 149.727C290.551 145.419 291.574 141.486 293.621 137.927C295.765 134.369 298.737 131.372 302.538 128.937C306.339 126.409 310.773 124.489 315.841 123.178C320.909 121.867 326.415 121.212 332.36 121.212C338.597 121.212 344.298 121.867 349.464 123.178C354.726 124.489 359.356 126.456 363.351 129.078C367.445 131.606 370.856 134.743 373.584 138.489L362.767 149.446C360.33 146.262 357.504 143.593 354.288 141.439C351.169 139.285 347.709 137.646 343.909 136.523C340.108 135.399 336.112 134.837 331.921 134.837C327.146 134.837 322.907 135.399 319.203 136.523C315.5 137.646 312.576 139.238 310.432 141.299C308.288 143.265 307.216 145.653 307.216 148.462C307.216 150.804 307.849 152.864 309.116 154.643C310.383 156.329 312.186 157.78 314.525 158.998C316.864 160.215 319.739 161.245 323.15 162.088C326.561 162.931 330.459 163.633 334.845 164.195C340.498 165.038 345.809 166.115 350.779 167.426C355.847 168.643 360.281 170.282 364.082 172.342C367.883 174.308 370.856 176.837 373 179.927C375.144 182.924 376.216 186.623 376.216 191.024C376.216 197.392 374.413 202.917 370.807 207.599C367.201 212.282 362.084 215.934 355.457 218.556C348.83 221.084 341.034 222.348 332.068 222.348Z" fill="#EDF6F9"/>
<path d="M493.2 220.944V122.616H508.988V220.944H493.2ZM413.382 220.944V122.616H429.171V220.944H413.382ZM420.253 179.646V165.038H500.217V179.646H420.253Z" fill="#EDF6F9"/>
<path d="M553.43 220.944V122.616H569.218V206.335H630.178V220.944H553.43Z" fill="#EDF6F9"/>
<path d="M684.986 220.944V175.151L687.179 184.563L637.183 122.616H658.088L694.927 170.094L691.418 169.814L726.649 122.616H745.653L699.458 182.737L700.774 174.028V220.944H684.986Z" fill="#EDF6F9"/>
</svg>
